<svg xmlns="http://www.w3.org/2000/svg" width="72.005" height="72.004" viewBox="2571.095 897.498 72.005 72.004"><g data-name="CompositeLayer"><path d="M2632.627 937.5a6 6 0 1 0 0-8h-4.93a20.89 20.89 0 0 0-3.21-7.73l3.49-3.49a6 6 0 1 0-5.66-5.66l-3.48 3.49a21.08 21.08 0 0 0-7.74-3.21v-4.93a6 6 0 1 0-8 0v4.93a21 21 0 0 0-7.73 3.21l-3.49-3.49a6 6 0 1 0-5.66 5.66l3.49 3.48a21.08 21.08 0 0 0-3.21 7.74h-4.93a6 6 0 1 0 0 8h4.93a20.89 20.89 0 0 0 3.21 7.73l-3.49 3.49a6 6 0 1 0 5.66 5.66l3.49-3.49a20.89 20.89 0 0 0 7.73 3.21v4.93a6 6 0 1 0 8 0v-4.93a20.94 20.94 0 0 0 3.21-.9 13.47 13.47 0 0 0-.21 2.3c0 7.732 6.268 14 14 14s14-6.268 14-14-6.268-14-14-14a12.82 12.82 0 0 0-1.65.11 20.77 20.77 0 0 0 1.25-4.11h4.93Zm-4.53 7c6.076 0 11 4.925 11 11s-4.924 11-11 11c-6.075 0-11-4.925-11-11s4.925-11 11-11Zm-3-10-.17 1.31a17.74 17.74 0 0 1-2.38 6.84l-.43.21-2.29-2.29-2.12 2.12 1.78 1.81a14.43 14.43 0 0 0-1.48 1.34l-1.72-1.71-2.12 2.12 2 2c-.22.37-.43.75-.62 1.14a17.63 17.63 0 0 1-6.13 2l-1.32.11v9.06l.67.45a3 3 0 1 1-3.34 0l.67-.45v-9.06l-1.31-.17a17.88 17.88 0 0 1-7.25-2.61l2.49-2.49-2.12-2.12-9.24 9.23.16.79a3 3 0 1 1-2.36-2.36l.79.16 9.23-9.24-2.12-2.12-2.49 2.49a17.88 17.88 0 0 1-2.61-7.25l-.17-1.31h-9.06l-.45.67a3 3 0 1 1 0-3.34l.45.67h9.06l.17-1.31a17.88 17.88 0 0 1 2.61-7.25l2.49 2.49 2.12-2.12-9.23-9.24-.79.16a3 3 0 1 1 2.36-2.36l-.16.79 9.24 9.23 2.12-2.12-2.49-2.49a17.88 17.88 0 0 1 7.25-2.61l1.31-.17v-9.06l-.67-.45a3 3 0 1 1 3.34 0l-.67.45v9.06l1.31.17a17.88 17.88 0 0 1 7.25 2.61l-2.49 2.49 2.12 2.12 9.24-9.23-.16-.79a3 3 0 1 1 2.36 2.36l-.79-.16-9.23 9.24 2.12 2.12 2.49-2.49a17.83 17.83 0 0 1 2.61 7.25l.17 1.31h9.06l.45-.67a3 3 0 1 1 0 3.34l-.45-.67h-9.06Z" fill="#4468e2" fill-rule="evenodd" data-name="Path 77993"/><path d="M2607.097 927.5a6 6 0 1 0 0 12 6 6 0 0 0 0-12Zm0 9a3 3 0 1 1 0-6 3 3 0 0 1 0 6Z" fill="#4468e2" fill-rule="evenodd" data-name="Path 77994"/><path d="m2625.787 962.7 2.31.87 2.31-.87a7.1 7.1 0 0 0 4.61-6.66v-6.54l-1.16.2a5.41 5.41 0 0 1-4.68-1.5l-1.08-1.11-1.11 1.1a6 6 0 0 1-4.73 1.74l-1.08-.09v6.2a7.1 7.1 0 0 0 4.61 6.66Zm-2.61-10.76a8 8 0 0 0 4.92-2 7.48 7.48 0 0 0 4.92 1.84v4.3a5.1 5.1 0 0 1-3.32 4.79l-1.6.6-1.6-.6a5.1 5.1 0 0 1-3.32-4.79v-4.14Z" fill="#4468e2" fill-rule="evenodd" data-name="Path 77995"/><path d="m2631.447 954.2-1.6-1.19-2.25 3-1.08-1.11-1.44 1.39 2.72 2.8 3.65-4.89Z" fill="#4468e2" fill-rule="evenodd" data-name="Path 77996"/><g data-name="Covid Safe"><path d="M2632.627 937.5a6 6 0 1 0 0-8h-4.93a20.89 20.89 0 0 0-3.21-7.73l3.49-3.49a6 6 0 1 0-5.66-5.66l-3.48 3.49a21.08 21.08 0 0 0-7.74-3.21v-4.93a6 6 0 1 0-8 0v4.93a21 21 0 0 0-7.73 3.21l-3.49-3.49a6 6 0 1 0-5.66 5.66l3.49 3.48a21.08 21.08 0 0 0-3.21 7.74h-4.93a6 6 0 1 0 0 8h4.93a20.89 20.89 0 0 0 3.21 7.73l-3.49 3.49a6 6 0 1 0 5.66 5.66l3.49-3.49a20.89 20.89 0 0 0 7.73 3.21v4.93a6 6 0 1 0 8 0v-4.93a20.94 20.94 0 0 0 3.21-.9 13.47 13.47 0 0 0-.21 2.3c0 7.732 6.268 14 14 14s14-6.268 14-14-6.268-14-14-14a12.82 12.82 0 0 0-1.65.11 20.77 20.77 0 0 0 1.25-4.11h4.93Zm-4.53 7c6.076 0 11 4.925 11 11s-4.924 11-11 11c-6.075 0-11-4.925-11-11s4.925-11 11-11Zm-3-10-.17 1.31a17.74 17.74 0 0 1-2.38 6.84l-.43.21-2.29-2.29-2.12 2.12 1.78 1.81a14.43 14.43 0 0 0-1.48 1.34l-1.72-1.71-2.12 2.12 2 2c-.22.37-.43.75-.62 1.14a17.63 17.63 0 0 1-6.13 2l-1.32.11v9.06l.67.45a3 3 0 1 1-3.34 0l.67-.45v-9.06l-1.31-.17a17.88 17.88 0 0 1-7.25-2.61l2.49-2.49-2.12-2.12-9.24 9.23.16.79a3 3 0 1 1-2.36-2.36l.79.16 9.23-9.24-2.12-2.12-2.49 2.49a17.88 17.88 0 0 1-2.61-7.25l-.17-1.31h-9.06l-.45.67a3 3 0 1 1 0-3.34l.45.67h9.06l.17-1.31a17.88 17.88 0 0 1 2.61-7.25l2.49 2.49 2.12-2.12-9.23-9.24-.79.16a3 3 0 1 1 2.36-2.36l-.16.79 9.24 9.23 2.12-2.12-2.49-2.49a17.88 17.88 0 0 1 7.25-2.61l1.31-.17v-9.06l-.67-.45a3 3 0 1 1 3.34 0l-.67.45v9.06l1.31.17a17.88 17.88 0 0 1 7.25 2.61l-2.49 2.49 2.12 2.12 9.24-9.23-.16-.79a3 3 0 1 1 2.36 2.36l-.79-.16-9.23 9.24 2.12 2.12 2.49-2.49a17.83 17.83 0 0 1 2.61 7.25l.17 1.31h9.06l.45-.67a3 3 0 1 1 0 3.34l-.45-.67h-9.06Z" fill="#4468e2" fill-rule="evenodd" data-name="Path 77993"/><path d="M2607.097 927.5a6 6 0 1 0 0 12 6 6 0 0 0 0-12Zm0 9a3 3 0 1 1 0-6 3 3 0 0 1 0 6Z" fill="#4468e2" fill-rule="evenodd" data-name="Path 77994"/><path d="m2625.787 962.7 2.31.87 2.31-.87a7.1 7.1 0 0 0 4.61-6.66v-6.54l-1.16.2a5.41 5.41 0 0 1-4.68-1.5l-1.08-1.11-1.11 1.1a6 6 0 0 1-4.73 1.74l-1.08-.09v6.2a7.1 7.1 0 0 0 4.61 6.66Zm-2.61-10.76a8 8 0 0 0 4.92-2 7.48 7.48 0 0 0 4.92 1.84v4.3a5.1 5.1 0 0 1-3.32 4.79l-1.6.6-1.6-.6a5.1 5.1 0 0 1-3.32-4.79v-4.14Z" fill="#4468e2" fill-rule="evenodd" data-name="Path 77995"/><path d="m2631.447 954.2-1.6-1.19-2.25 3-1.08-1.11-1.44 1.39 2.72 2.8 3.65-4.89Z" fill="#4468e2" fill-rule="evenodd" data-name="Path 77996"/></g></g></svg>