<svg xmlns="http://www.w3.org/2000/svg" width="63.927" height="42.618" viewBox="3052 912 63.927 42.618"><g data-name="CompositeLayer"><path d="M3110.173 912h-52.42c-3.125 0-5.753 2.628-5.753 5.753v31.111c0 3.197 2.628 5.754 5.753 5.754h52.42c3.196 0 5.754-2.628 5.754-5.754v-31.11c0-3.126-2.629-5.754-5.754-5.754Zm4.333 17.757h-61.085v-9.944h61.085v9.944Z" fill="#4468e2" fill-rule="evenodd" data-name="Path 77997"/><g data-name="Flexible Payment"><path d="M3110.173 912h-52.42c-3.125 0-5.753 2.628-5.753 5.753v31.111c0 3.197 2.628 5.754 5.753 5.754h52.42c3.196 0 5.754-2.628 5.754-5.754v-31.11c0-3.126-2.629-5.754-5.754-5.754Zm4.333 17.757h-61.085v-9.944h61.085v9.944Z" fill="#4468e2" fill-rule="evenodd" data-name="Path 77997"/></g></g></svg>